<svg width="142" height="42" viewBox="0 0 142 42" fill="none" xmlns="http://www.w3.org/2000/svg">
<mask id="mask0_306_949" style="mask-type:luminance" maskUnits="userSpaceOnUse" x="6" y="5" width="29" height="32">
<path d="M6.16797 5.04297H34.7972V36.3124H6.16797V5.04297Z" fill="white"/>
</mask>
<g mask="url(#mask0_306_949)">
<path d="M24.5753 7.22882C27.3139 7.22882 29.8931 7.90837 32.1554 9.10616C33.0172 8.71899 33.8265 8.33183 34.5146 7.95274C31.6489 6.1117 28.2383 5.04297 24.5753 5.04297C14.41 5.04297 6.16797 13.2762 6.16797 23.4352C6.16797 28.2788 8.04483 32.6847 11.1084 35.9696C11.1346 35.046 11.2456 34.0358 11.5079 33.0356C9.52816 30.3477 8.35562 27.0285 8.35562 23.4352C8.35562 14.4841 15.6189 7.22882 24.5753 7.22882Z" fill="#FF735C"/>
</g>
<mask id="mask1_306_949" style="mask-type:luminance" maskUnits="userSpaceOnUse" x="14" y="10" width="29" height="32">
<path d="M14.624 10.8564H42.9182V41.7609H14.624V10.8564Z" fill="white"/>
</mask>
<g mask="url(#mask1_306_949)">
<path d="M38.0445 10.9009C38.0163 11.8244 37.9053 12.8327 37.6449 13.8348C39.6247 16.5228 40.7952 19.8419 40.7952 23.4353C40.7952 32.3864 33.534 39.6416 24.5755 39.6416C21.8369 39.6416 19.2578 38.9621 16.9954 37.7643C16.1357 38.1494 15.3264 38.5386 14.6362 38.9177C17.504 40.7588 20.9146 41.8275 24.5755 41.8275C34.7429 41.8275 42.9829 33.5922 42.9829 23.4353C42.9829 18.5917 41.1081 14.1857 38.0445 10.9009Z" fill="#669DC8"/>
</g>
<path d="M31.3765 23.2031C30.3432 23.6447 29.5077 24.4533 29.0415 25.4757C25.2999 33.6666 14.2527 31.638 20.0386 29.8071C25.9619 27.9338 23.2071 25.3547 23.0235 25.1893L23.0154 25.1934C23.0396 25.3628 23.2031 27.23 18.7551 27.7402C9.74415 28.7766 12.2345 39.6414 12.2345 39.6414C14.3112 37.3507 22.9932 34.82 25.8488 32.8217C29.1323 30.5269 31.3765 23.2031 31.3765 23.2031Z" fill="#669DC8"/>
<path d="M27.4191 27.2843C27.7602 24.9069 28.8701 23.3078 28.2082 23.4954C27.1487 23.7958 26.5755 26.4152 26.2849 28.4357C26.6805 28.0949 27.0619 27.7118 27.4191 27.2843Z" fill="#669DC8"/>
<path d="M25.4493 29.0853C25.3262 25.8569 27.1284 23.4533 26.3252 23.6832C25.0437 24.0461 24.4705 27.8169 24.2566 29.7991C24.6562 29.5934 25.0578 29.3575 25.4493 29.0853Z" fill="#669DC8"/>
<path d="M17.7764 23.6668C18.8076 23.2232 19.6452 22.4166 20.1113 21.3942C23.853 13.2013 34.9002 15.2319 29.1122 17.0628C23.191 18.9361 25.9458 21.5152 26.1294 21.6806L26.1355 21.6765C26.1112 21.5071 25.9498 19.6399 30.3978 19.1297C39.4087 18.0933 36.9183 7.22852 36.9183 7.22852C34.8417 9.51923 26.1597 12.0499 23.304 14.0462C20.0205 16.343 17.7764 23.6668 17.7764 23.6668Z" fill="#FF735C"/>
<path d="M21.734 19.5835C21.393 21.961 20.283 23.562 20.945 23.3745C22.0025 23.072 22.5776 20.4546 22.8662 18.4321C22.4727 18.7749 22.0913 19.156 21.734 19.5835Z" fill="#FF735C"/>
<path d="M23.7036 17.7846C23.8267 21.013 22.0225 23.4146 22.8257 23.1868C24.1092 22.8218 24.6824 19.053 24.8963 17.0708C24.4947 17.2745 24.0951 17.5124 23.7036 17.7846Z" fill="#FF735C"/>
<path d="M7.25351 36.3574L6.91244 35.9037L4.94073 36.5509L4.93669 36.5469L6.11326 34.839L5.77422 34.3853L3.36255 35.1152L3.635 35.4782L5.63093 34.8511L5.63295 34.8531L4.44628 36.559L4.7934 37.0208L6.76108 36.3574L6.76512 36.3614L5.60469 38.1016L5.87916 38.4686L7.25351 36.3574Z" fill="#181818"/>
<path d="M4.25917 31.3747C3.89994 30.5701 3.19561 30.2374 2.5034 30.5459C1.81118 30.8545 1.58515 31.6026 1.94437 32.4051C2.30158 33.2077 3.00995 33.5384 3.70216 33.2299C4.39438 32.9213 4.61638 32.1752 4.25917 31.3747ZM3.9282 31.5199C4.17844 32.0805 4.01498 32.6068 3.52255 32.8266C3.02811 33.0484 2.52761 32.8185 2.27736 32.2579C2.02712 31.6973 2.19058 31.171 2.68301 30.9512C3.17745 30.7315 3.67795 30.9593 3.9282 31.5199Z" fill="#181818"/>
<path d="M3.18998 28.8926L3.09916 28.4813L1.29293 28.8765L1.29092 28.8684L2.90744 27.6021L2.81864 27.1948L0.818673 26.7189L0.816654 26.7128L2.62692 26.3176L2.53812 25.9062L0.225342 26.4104L0.354502 27.0052L2.4352 27.4892L2.43721 27.4932L0.748038 28.8059L0.877198 29.3968L3.18998 28.8926Z" fill="#181818"/>
<path d="M2.42781 24.5979L2.36525 22.5693L2.0262 22.5814L2.07464 24.1805L1.3582 24.2027L1.3138 22.769L0.998975 22.779L1.04337 24.2128L0.393536 24.2329L0.3451 22.6661L0 22.6762L0.0625621 24.6705L2.42781 24.5979Z" fill="#181818"/>
<path d="M2.42002 21.3554L2.47855 20.9339L0.613792 20.6778V20.6738L2.67027 19.5506L2.74494 19.0082L0.399871 18.6855L0.341345 19.107L2.21013 19.3651V19.3691L0.149623 20.4883L0.0749512 21.0307L2.42002 21.3554Z" fill="#181818"/>
<path d="M4.14333 14.879C4.39964 14.276 4.29066 13.7558 3.86685 13.5763C3.52982 13.4311 3.23114 13.5985 2.90824 14.1147L2.66001 14.5039C2.48443 14.7781 2.34114 14.8669 2.18776 14.8003C1.99402 14.7197 1.94559 14.4414 2.0808 14.1248C2.214 13.8123 2.48039 13.6126 2.75284 13.6126L2.70441 13.2658C2.33711 13.2577 1.96577 13.542 1.77405 13.9937C1.53994 14.5442 1.64085 15.0383 2.05457 15.2157C2.38352 15.3549 2.65193 15.2117 2.9486 14.7479L3.20288 14.3547C3.41479 14.028 3.57826 13.9232 3.74173 13.9937C3.94354 14.0784 3.99601 14.3728 3.84263 14.7318C3.66302 15.1532 3.29774 15.4254 2.95062 15.3871L2.98291 15.7481C3.44304 15.7904 3.90519 15.4395 4.14333 14.879Z" fill="#181818"/>
<path d="M4.97659 12.9152L5.22684 12.528L4.91807 12.0541L5.59818 10.9995L6.1572 11.0903L6.40947 10.7011L3.85047 10.2998L3.56592 10.7394L4.97659 12.9152ZM4.70818 11.7839L3.99578 10.7152L3.9978 10.7091L5.26518 10.9209L4.70818 11.7839Z" fill="#181818"/>
<path d="M7.14627 9.79989L7.44293 9.47322L6.71439 8.81182L7.56806 7.87214L7.32588 7.65235L6.47221 8.59202L5.95961 8.12823L6.94647 7.04136L6.67806 6.79736L5.39453 8.20889L7.14627 9.79989Z" fill="#181818"/>
<path d="M9.31427 7.55957L10.8924 6.28517L10.6785 6.02101L9.43132 7.02723L8.98128 6.46866L10.0973 5.5673L9.90154 5.32331L8.7835 6.22467L8.37584 5.71854L9.59479 4.73248L9.37885 4.46631L7.8269 5.71854L9.31427 7.55957Z" fill="#181818"/>
<path d="M12.5648 5.22412L12.9482 5.00433L11.9513 3.26815L12.7363 2.81848L12.5547 2.50391L10.5991 3.62305L10.7808 3.93963L11.5678 3.48794L12.5648 5.22412Z" fill="#181818"/>
<path d="M15.5914 3.7627L16.0051 3.60743L15.7044 2.80488L16.11 1.04248L15.6459 1.2159L15.3734 2.54072H15.3694L14.2735 1.7301L13.8154 1.9015L15.2907 2.95813L15.5914 3.7627Z" fill="#181818"/>
<path d="M19.771 2.59332L20.2291 2.55098L20.4107 2.0146L21.66 1.89562L21.9344 2.38966L22.3966 2.3453L21.1272 0.0888672L20.6045 0.139279L19.771 2.59332ZM20.4935 1.67986L20.889 0.459898H20.8971L21.5167 1.58307L20.4935 1.67986Z" fill="#181818"/>
<path d="M23.5557 2.35725L23.9916 2.39153L24.0582 1.55268L24.9926 1.62729C25.5577 1.67165 25.927 1.40548 25.9673 0.943708C26.0037 0.47387 25.6808 0.151235 25.1157 0.106873L23.7413 0L23.5557 2.35725ZM24.0824 1.22803L24.151 0.358931L25.0107 0.427491C25.3518 0.453706 25.5496 0.639221 25.5274 0.905395C25.5072 1.17157 25.2852 1.32079 24.9421 1.29457L24.0824 1.22803Z" fill="#181818"/>
<path d="M27.0298 2.74146L27.4536 2.84833L27.6594 2.03368L28.5696 2.26355C29.1186 2.40269 29.5282 2.20306 29.6453 1.75339C29.7603 1.29766 29.4959 0.924618 28.945 0.785481L27.609 0.44873L27.0298 2.74146ZM27.7402 1.71709L27.9521 0.87219L28.7876 1.08392C29.1206 1.16659 29.284 1.38437 29.2174 1.64248C29.1529 1.90059 28.9087 2.0115 28.5737 1.9268L27.7402 1.71709Z" fill="#181818"/>
<path d="M54.3389 27.2533C56.4475 27.2533 57.8123 26.0088 57.8123 24.299C57.8123 23.0281 56.9113 22.1808 55.1093 21.7817L53.5968 21.4375C52.4176 21.1727 51.9141 20.7225 51.9141 19.9282C51.9141 18.9598 52.7223 18.2317 53.9944 18.2317C55.1888 18.2317 56.0765 19.0147 56.209 20.1532L57.2558 19.8885C56.9908 18.3243 55.6923 17.252 53.9811 17.252C52.0731 17.252 50.8124 18.4303 50.8124 20.1135C50.8124 21.358 51.5942 22.1127 53.2523 22.4985L54.7629 22.8427C56.1295 23.1605 56.7125 23.6503 56.7125 24.4712C56.7125 25.4925 55.8115 26.2736 54.3389 26.2736C52.7091 26.2736 51.4749 25.239 51.3822 23.7827L50.2957 23.9813C50.5077 25.9029 52.1791 27.2533 54.3389 27.2533Z" fill="#FF725C"/>
<path d="M60.9265 27.1875C62.119 27.1875 63.0484 26.6579 63.5254 25.8106H63.5387L63.5519 26.1151C63.5917 26.7241 64.0024 27.1875 64.6517 27.1875C65.1685 27.1875 65.725 26.9094 66.0032 26.499L65.46 25.8635C65.3142 26.1018 65.1022 26.2607 64.9167 26.2607C64.7047 26.2607 64.5589 26.0754 64.5589 25.8106V22.4194C64.5589 20.9215 63.3532 19.9683 61.642 19.9683C59.9062 19.9683 58.6058 21.0009 58.4866 22.0998L59.4008 22.4856C59.4538 21.6894 60.3435 20.8818 61.6023 20.8818C62.7683 20.8818 63.5652 21.4246 63.5652 22.2606C63.5652 22.5518 63.3532 22.7372 63.0219 22.7769L61.3638 22.9755C59.1888 23.2403 58.3408 24.1008 58.3408 25.1732C58.3408 26.3666 59.4008 27.1875 60.9265 27.1875ZM61.0988 26.2739C60.0785 26.2739 59.3478 25.8371 59.3478 25.16C59.3478 24.5509 59.8532 24.0346 61.4698 23.836L63.5387 23.5845V24.0611C63.5387 25.3604 62.5033 26.2739 61.0988 26.2739Z" fill="#FF725C"/>
<path d="M67.4725 26.9225H68.4815L68.4682 21.0669H71.3586V20.2328H68.4682V19.2399C68.4682 18.4171 68.9717 17.8611 69.674 17.8611C70.3365 17.8611 70.8949 18.3774 71.0406 19.0678L71.9284 18.6952C71.6899 17.7022 70.8154 16.9873 69.6342 16.9873C68.3357 16.9873 67.4593 17.8346 67.4593 19.0678V20.2328H65.9885V21.0669H67.4593L67.4725 26.9225Z" fill="#FF725C"/>
<path d="M76.0224 27.1875C77.5216 27.1875 78.7804 26.4328 79.2176 25.3604L78.3431 25.0011C77.9721 25.7311 77.0843 26.2739 76.0357 26.2739C74.5914 26.2739 73.5162 25.3056 73.3705 23.9155H79.0056C79.0189 23.7831 79.0189 23.6374 79.0189 23.5183C78.9924 21.4511 77.7071 19.9683 75.7442 19.9683C73.7566 19.9683 72.3237 21.4511 72.3237 23.505C72.3237 25.6385 73.8891 27.1875 76.0224 27.1875ZM73.3837 23.0284C73.5711 21.7556 74.4854 20.895 75.7309 20.895C76.9518 20.895 77.8131 21.6629 77.9456 23.0284H73.3837Z" fill="#FF725C"/>
<path d="M84.8673 27.2533C86.5369 27.2533 87.9168 26.4457 88.725 25.1199H88.7383L88.8443 26.9223H89.7718V21.7684H83.4477V22.75H88.6455C88.6455 24.7624 87.0139 26.2736 84.9601 26.2736C82.7189 26.2736 81.1005 24.5771 81.1005 22.2602C81.1005 19.9017 82.6394 18.2317 84.7878 18.2317C86.1791 18.2317 87.3981 19.1338 87.8373 20.4048L88.8575 20.0738C88.301 18.4303 86.6561 17.252 84.8011 17.252C82.0167 17.252 80.0007 19.3589 80.0007 22.2602C80.0007 25.1464 82.0432 27.2533 84.8673 27.2533Z" fill="#669DC8"/>
<path d="M93.3752 27.1873C94.5412 27.1873 95.3779 26.7372 95.9476 25.9296H95.9609L96.0536 26.9225H96.9679V20.2329H95.9609V24.008C95.9609 25.3735 94.9917 26.3135 93.6534 26.3135C92.5934 26.3135 91.9177 25.5854 91.9177 24.4449V20.2329H90.8955V24.5508C90.8955 26.2076 91.8363 27.1873 93.3752 27.1873Z" fill="#669DC8"/>
<path d="M100.479 27.1875C101.672 27.1875 102.601 26.6579 103.078 25.8106H103.092L103.105 26.1151C103.145 26.7241 103.555 27.1875 104.205 27.1875C104.721 27.1875 105.278 26.9094 105.556 26.499L105.013 25.8635C104.867 26.1018 104.655 26.2607 104.47 26.2607C104.258 26.2607 104.112 26.0754 104.112 25.8106V22.4194C104.112 20.9215 102.906 19.9683 101.195 19.9683C99.4592 19.9683 98.1588 21.0009 98.0396 22.0998L98.9538 22.4856C99.0068 21.6894 99.8965 20.8818 101.155 20.8818C102.321 20.8818 103.118 21.4246 103.118 22.2606C103.118 22.5518 102.906 22.7372 102.575 22.7769L100.917 22.9755C98.7418 23.2403 97.8938 24.1008 97.8938 25.1732C97.8938 26.3666 98.9538 27.1875 100.479 27.1875ZM100.652 26.2739C99.6315 26.2739 98.9008 25.8371 98.9008 25.16C98.9008 24.5509 99.4062 24.0346 101.023 23.836L103.092 23.5845V24.0611C103.092 25.3604 102.056 26.2739 100.652 26.2739Z" fill="#669DC8"/>
<path d="M109.121 19.9551C108.273 19.9551 107.557 20.4714 107.186 21.279H107.173L107.078 20.2331H106.217V26.9227H107.226V23.2403C107.226 21.7821 107.902 20.8951 108.975 20.8951C109.704 20.8951 110.194 21.3982 110.3 22.34L111.176 22.0469C111.044 20.7097 110.26 19.9551 109.121 19.9551Z" fill="#669DC8"/>
<path d="M115.244 27.1874C116.359 27.1874 117.287 26.6578 117.856 25.7708H117.87L117.962 26.9226H118.85V17.186H117.83V21.3583H117.817C117.247 20.4845 116.346 19.9682 115.231 19.9682C113.27 19.9682 111.837 21.4907 111.837 23.5844C111.837 25.6649 113.283 27.1874 115.244 27.1874ZM115.363 26.2739C113.919 26.2739 112.844 25.1202 112.844 23.5844C112.844 22.06 113.906 20.8949 115.363 20.8949C116.81 20.8949 117.87 22.06 117.87 23.5844C117.87 25.0937 116.81 26.2739 115.363 26.2739Z" fill="#669DC8"/>
<path d="M120.31 26.9224H121.411V22.5515H126.581V26.9224H127.682V17.583H126.581V21.5699H121.411V17.583H120.31V26.9224Z" fill="#FF725C"/>
<path d="M132.571 27.1875C134.07 27.1875 135.328 26.4328 135.766 25.3604L134.891 25.0011C134.52 25.7311 133.632 26.2739 132.584 26.2739C131.14 26.2739 130.064 25.3056 129.919 23.9155H135.554C135.567 23.7831 135.567 23.6374 135.567 23.5183C135.54 21.4511 134.255 19.9683 132.292 19.9683C130.305 19.9683 128.872 21.4511 128.872 23.505C128.872 25.6385 130.437 27.1875 132.571 27.1875ZM129.932 23.0284C130.119 21.7556 131.034 20.895 132.279 20.895C133.5 20.895 134.361 21.6629 134.494 23.0284H129.932Z" fill="#FF725C"/>
<path d="M139.649 19.9551C138.801 19.9551 138.085 20.4714 137.714 21.279H137.701L137.606 20.2331H136.745V26.9227H137.754V23.2403C137.754 21.7821 138.43 20.8951 139.503 20.8951C140.232 20.8951 140.722 21.3982 140.828 22.34L141.704 22.0469C141.572 20.7097 140.788 19.9551 139.649 19.9551Z" fill="#FF725C"/>
</svg>
